<mxfile host="app.diagrams.net" modified="2021-03-17T14:06:03.160Z" agent="5.0 (Windows NT 10.0; WOW64) AppleWebKit/537.36 (KHTML, like Gecko) Chrome/78.0.3904.108 Safari/537.36" etag="HRf5YghnCg86sVCtDy-G" version="14.4.8" type="github">
  <diagram id="GLQvKcuqE60-girFdkLH" name="Page-1">
    <mxGraphModel dx="1424" dy="752" grid="1" gridSize="10" guides="1" tooltips="1" connect="1" arrows="1" fold="1" page="1" pageScale="1" pageWidth="3300" pageHeight="4681" math="0" shadow="0">
      <root>
        <mxCell id="0" />
        <mxCell id="1" parent="0" />
      </root>
    </mxGraphModel>
  </diagram>
</mxfile>
